<?xml version="1.0" encoding="utf-8"?>
<!-- Generator: Adobe Illustrator 26.0.3, SVG Export Plug-In . SVG Version: 6.00 Build 0)  -->
<svg version="1.1" id="Layer_1" xmlns="http://www.w3.org/2000/svg" xmlns:xlink="http://www.w3.org/1999/xlink" x="0px" y="0px"
	 viewBox="0 0 532 500" style="enable-background:new 0 0 532 500;" xml:space="preserve">
<style type="text/css">
	.st0{fill:#FFFFFF;}
</style>
<path class="st0" d="M506.1,273.6L391.7,73.7l-0.1-0.1l0-0.1C365.2,27.7,318.6,0.3,267,0.3c-0.3,0-0.7,0-1,0c-0.3,0-0.7,0-1,0
	c-51.6,0-98.2,27.4-124.6,73.2l-0.1,0.1l-0.1,0.1L26,273.6c-30.6,48.2-33.7,104.9-8.1,151.8c12.1,22.2,30.1,40.9,51.9,53.9
	c22.5,13.4,48.6,20.5,75.6,20.5H266h120.7c27,0,53.1-7.1,75.6-20.5c21.8-13,39.8-31.6,51.9-53.9
	C539.7,378.4,536.7,321.8,506.1,273.6z M386.7,452.9H266H145.4C68,452.9,18.7,371.2,66,297.8L180.9,97C200,64,232.8,46.8,266,47.1
	c33.2-0.3,66,16.8,85.1,49.8L466,297.8C513.4,371.2,464,452.9,386.7,452.9z"/>
</svg>
