<svg id="Layer_1" data-name="Layer 1" xmlns="http://www.w3.org/2000/svg" width="16in" height="3.5in" viewBox="0 0 1152 252"><rect x="126.4" y="112.6" width="123.3" height="28.83" fill="#fff"/><rect x="266.3" y="112.6" width="112.4" height="28.83" fill="#fff"/><path d="M483.2,112.6H402.3v28.8H525C519.4,124.7,504.4,112.6,483.2,112.6Z" fill="#fff"/><path d="M632.1,112.6h-81v28.8H673.8C668.2,124.7,653.2,112.6,632.1,112.6Z" fill="#fff"/><polygon points="774.9 112.6 741 112.6 730.6 141.4 785.1 141.4 774.9 112.6" fill="#fff"/><rect x="841" y="112.6" width="33" height="28.83" fill="#fff"/><polygon points="932.6 112.6 899.8 112.6 899.8 141.4 949.6 141.4 932.6 112.6" fill="#fff"/><rect x="995.8" y="112.6" width="30.8" height="28.83" fill="#fff"/></svg>