<svg id="Layer_1" data-name="Layer 1" xmlns="http://www.w3.org/2000/svg" viewBox="0 0 327 357"><defs><style>.cls-1{fill:#fff;}</style></defs><path class="cls-1" d="M288.3,243.2a12,12,0,0,0,1.1-1.2,11.26,11.26,0,0,0,3-8.3,8.71,8.71,0,0,0-3.4-6.4,12.84,12.84,0,0,0-5.4-2.4,15.08,15.08,0,0,0-11.7,1.6c-2.8,1.8-4.5,4.4-5.4,8.6-1.8,8.2,0,14.5,5.2,19.4a36.61,36.61,0,0,0,25.1,9.8,23.27,23.27,0,0,0,12.6-3.3c7.5-4.5,11-11.5,13.5-17.9a53.89,53.89,0,0,0,3.5-16.9,57.48,57.48,0,0,0-7.1-31.9,82.32,82.32,0,0,0-19.1-22.8c-12.4-10.6-24.9-17.4-38.2-20.8a80.69,80.69,0,0,0-41.8.1l-1.6.5a122.28,122.28,0,0,0-13,4.1,145.47,145.47,0,0,0-15.7,7.6c-4,2.2-8,4.6-11.8,7l-.3.2c-1.2.7-2.3,1.4-3.5,2.2a4.45,4.45,0,0,1,.4-4c1.5-2.8,3.1-6,5-8.9,3.3-5,6.8-10.2,9.9-14.8,2.7-4.1,5.9-8.6,8.8-13.1,7.8-11.8,16.7-26,22.9-42.1a114.66,114.66,0,0,0,6.4-23.7c1.6-10.2.2-20.6-4.2-31.8-2.4-6.1-4.5-11.3-6.6-16.1-1.9-4.3-4.3-9.2-8.2-13.3A23.07,23.07,0,0,0,203.6.7a3.5,3.5,0,0,0-4.7.4c-1.7,1.9-.4,3.7.3,4.6L201,8.1c1.5,2,2.9,4,4.4,6a60.83,60.83,0,0,1,7.9,14.4,71.68,71.68,0,0,1,3.5,15.1,29.29,29.29,0,0,1-3.6,18.3,87.6,87.6,0,0,1-13.9,18.8c-11.4,11.9-21.5,22.2-31,31.7-7.3,7.3-11.6,16.4-15.1,25.2-1.4,3.5-2.7,7.2-3.9,10.7-.8,2.2-1.6,4.6-2.5,6.8a19.68,19.68,0,0,1-2.1,4.4c-1.3,2-3.6,2.5-6.1,3l-.2.1c-1.6.4-2.6-.4-4.1-1.7-.2-.2-.4-.3-.6-.5-6.3-5.1-14.9-11.5-25-16a96,96,0,0,0-23.6-7.3c-13.6-2.2-24.5-2-34.4.6A59.5,59.5,0,0,0,33,145.4a72.94,72.94,0,0,0-19.1,17.8A65.11,65.11,0,0,0,.6,198.5,54.35,54.35,0,0,0,4,225c3.2,8,6.8,13.8,11.5,18.2A26.69,26.69,0,0,0,28.6,250a34.27,34.27,0,0,0,14.2-.3c5.4-1.2,9.6-3.8,12.3-7.7,3.6-5.2,4.8-11.3,3.8-18.8a12.42,12.42,0,0,0-5.3-9c-3.9-2.7-8.5-3.8-14-3.3a7.52,7.52,0,0,0-6.5,4.8,21.16,21.16,0,0,0-1.1,4.5,6.24,6.24,0,0,0,3.4,6.8c1.4.7,2.8,1.3,4.2,1.9.8.3,1.5.7,2.3,1,2.3,1.1,3.6,2,3.7,4.1.2,3.2-1,5.3-3.4,6.6-6.3,3.2-14.9,5-20,.3a44,44,0,0,1-12.6-21c-2-7.5-.2-17,4.4-23.1,7.1-9.5,15.5-15.2,25.7-17.7,3.6-.9,6.4-.8,8.8.1,3.2,1.2,4.8,4.1,6.2,6.9,4.2,8.6,9.1,9.5,15.5,8.1,5.1-1.1,9.6-3.6,14.2-6.3,1.7-1,3.5-2,5.2-3.1l.5-.3c4.8-2.8,9.7-5.8,14.7-8.4a32.53,32.53,0,0,1,15.5-3.6,29.27,29.27,0,0,1,21.4,9.2c.3.3.6.7.9,1s.4.5.6.7a45.75,45.75,0,0,1,2.9,3.6c3.4,5.1,5.5,10.9,7.1,15.9a67.58,67.58,0,0,1,3.2,18.1,24.58,24.58,0,0,1-.7,6,1.87,1.87,0,0,1-.9,1.5,1,1,0,0,1-.9-.1c-1.7-.9-3.4-1.9-5.5-3.2-6.6-3.9-14.6-8-24-9-9-.9-16.4,1.5-22.7,7.3a45.3,45.3,0,0,0-13.9,23.1c-1.2,4.7-2.1,9.4-.3,14.2a5.29,5.29,0,0,0,2.7,2.8c1.5.5,3.1-1.2,3.5-1.9,1.5-2.3,2.8-4.7,4.1-7.1l.1-.1c2.3-4.1,5.5-6.6,9.4-7.4s8-.4,13.1,1.2c1.6.5,3.2,1.1,4.8,1.6,2.7.9,5.5,1.9,8.3,2.6,3.5.9,7.3,1.5,10.7-1,.6-.4,1.1-.5,1.9.3a1.85,1.85,0,0,1,.3,2.4c-.8,1-1.6,2.1-2.7,3.4-3.1,3.6-6.5,7.7-7.9,13.1a30.58,30.58,0,0,0,.5,18.5,8.13,8.13,0,0,0,4.8,4.8,6.37,6.37,0,0,0,5.7-.7c.4-.3.8-.5,1.2-.8l-.6-.8.7.8c.4-.3.8-.5,1.2-.8,4.3-2.6,4.8-2.5,7.6-.3a208.93,208.93,0,0,1,22.8,20.3c.4.5.8,1,1.3,1.6-.1.1-.3.2-.4.3-2.1.9-4.2,1.8-6.2,2.6h-.1c-1.1.5-2.2.9-3.4,1.4-4.9,2.1-8.1,4.9-10.2,8.9-2.2,4.3-2.2,8.8-2,12.9a17.34,17.34,0,0,0,3.5,10.1,15.4,15.4,0,0,0,10.6,6.4,53.17,53.17,0,0,0,8.9.2c1.1,0,2.1-.1,3.2-.1a4.46,4.46,0,0,0,2.6-.8c4.3-3.1,5.8-7.6,4.8-14a4.9,4.9,0,0,0-4.4-4.1c-1.1-.2-4.5-.9-6.1,2.2a22.54,22.54,0,0,0-2.1,5.3c-.7,2.5-2.2,4.2-3.7,4.3-3.6.2-6.1-.9-7.7-3.6-2.7-4.5-2.3-9.6-1.5-14a9.29,9.29,0,0,1,2-4c2.6-3.6,6.7-4.5,11.1-5.2a6.49,6.49,0,0,1,4.3,1c3.3,1.8,6.8,3.7,10.4,5.6l6.1,3.1c7.2,3.8,14.7,7.6,22.2,11.3a152.2,152.2,0,0,0,15.1,6.5c4.1,1.5,8.3,2.7,12.4,3.9l2.5.7c.5.1.9.3,1.4.4a19.4,19.4,0,0,0,6,1.2c3.1-.1,6.3,0,9.4.1,2.2.1,4.6.1,6.9.1a54.8,54.8,0,0,0,13.8-1.4l3-.6c1.1-.2,2.3-.4,3.5-.7l3-.8c4.4-1.2,9-2.4,13.4-3.9a64,64,0,0,0,8.4-3.9l.2-.1a22.56,22.56,0,0,1,2.2-1.1,3.16,3.16,0,0,0,1.8-2,3.51,3.51,0,0,0-.8-2.8c-1.9-2.4-3.7-5-5.6-7.5-.6-.8-1.1-1.5-1.7-2.3s-1.3-1.7-2.3-1.8a3.78,3.78,0,0,0-2.7,1.1,65.35,65.35,0,0,1-26.2,12.7,134.93,134.93,0,0,1-16.8,2.6c-11,1.1-19.7.1-27.4-3.3a22.3,22.3,0,0,1-10.9-10.1,31.16,31.16,0,0,1-3.3-16.5,18.27,18.27,0,0,1,1.7-7.4c4.5-9,11.1-14.2,19.6-15.5a21,21,0,0,1,14.3,2.7c5.6,3.2,7.3,12.1,6,16.8a2.49,2.49,0,0,1-1.1,1.4c-2.5,1.6-5,1.1-6.9-1.4a7.69,7.69,0,0,0-1.8-1.8,6.1,6.1,0,0,0-5-.7,4.32,4.32,0,0,0-2.9,2.3c-2.1,4.7-1.8,8.9.7,12.6a10,10,0,0,0,6.5,4c4.4,1,9,1.7,13.2-1,9.6-6.2,12.1-15.3,7.1-25.7-3.8-8.1-10.6-13.7-19.7-16.2a28.07,28.07,0,0,0-23,3,33.56,33.56,0,0,0-15.5,19.5c-1,3.4-1.9,7.4-.8,11.7,1,3.5,2.1,7.7,2.9,12a5.06,5.06,0,0,1-.1,2.6,5.89,5.89,0,0,1-2.6-.4,101.25,101.25,0,0,1-11.1-5.3c-4.1-2.4-8.2-5.3-12-8l-1.2-.8a4.87,4.87,0,0,1-2.2-3.7c-.5-6-3.4-11-6.2-15.6-.6-.9-1.1-1.8-1.7-2.7-2.3-3.6-4.7-7.3-6-11.4-.5-1.4-.9-3.1-.5-3.8.2-.4,1-.8,3.2-1s4.1-.5,6.1-.8l.4-.1a4,4,0,0,0,2.7-1.5,3.58,3.58,0,0,0,.4-2.9,19.55,19.55,0,0,0-1.5-4.7c-2-4.3-5.4-7.6-8.3-10.2-4.1-3.6-8.3-7.3-12.4-10.8l-.1-.1a1.62,1.62,0,0,1-.7-1.4c.1-.5.6-.9,1.4-1.2a20.12,20.12,0,0,1,5-.9c4.5-.3,8.8,1.3,12.9,2.9,1.2.4,2.3.9,3.5,1.3a72.3,72.3,0,0,0,9.6,2.6c3.5.6,4.8-.9,5.6-3.7.8-2.5,1.4-5,2-7.2.9-3.4,3.2-5,6.7-4.5a18.75,18.75,0,0,1,11.8,6.2c1.4,1.6,2.8,3.2,4.1,4.8l.2.2c.8,1,1.6,1.9,2.5,2.9a3.06,3.06,0,0,0,5.2-.1,7.12,7.12,0,0,0,1.2-6.7,30.8,30.8,0,0,0-5.6-11.8c-5.8-7.4-13.7-12.4-24.4-15.3a107.7,107.7,0,0,0-13.6-2.4l-.8-.1c-8.2-1.1-15.3.5-21.1,4.8a85.72,85.72,0,0,0-7.2,6.1l-3.1,2.8c-.1.1-.2.1-.2.2v-.4a50.38,50.38,0,0,1-.7-5.6c-.4-10.8,1.1-19.5,4.6-27.2,1.8-4,4.6-9.1,9.2-12.8,7.4-5.7,16-6.9,25.6-3.4,6.4,2.3,12.1,6.1,16.4,9.1,6.1,4.4,12.8,9.1,19.5,13.7,4.2,2.9,8.3,3.8,12.5,2.7a20.3,20.3,0,0,0,8.1-4.6c1.7-1.5,3.8-3.1,6.3-2.9a112.17,112.17,0,0,1,16.5,2,71.66,71.66,0,0,1,12.8,4.4l.5.2a44.83,44.83,0,0,1,14.1,8.5c4.4,4.1,6.6,8.1,6.9,12.7a36.94,36.94,0,0,1-6.2,22.6,16.82,16.82,0,0,1-9.1,7.2,21.44,21.44,0,0,1-12.3,0,6,6,0,0,1-4.5-4.2,5.6,5.6,0,0,1,1.3-5.2A12.38,12.38,0,0,1,288.3,243.2Z"/><path class="cls-1" d="M98.8,96.1v0h.6c1.2.2,2.5.3,3.7.5a58.89,58.89,0,0,1,8.4,1.4c4.7,1.2,7.3,4.1,7.8,8.8.2,2.3.4,4.6.6,6.8v.2c.1,1.5.2,3,.4,4.5.6,7.3,3,12.1,7.6,15.6a17.1,17.1,0,0,1,1.4,1.1c3.1,2.4,6.4,4.8,8.7,8a22,22,0,0,0,2,2.3l.3.3a3.11,3.11,0,0,0,2.1,1.1.75.75,0,0,0,.5-.1,2.61,2.61,0,0,0,1.8-2.1,49.06,49.06,0,0,0,1-5.4c.2-2,.3-4.2.4-6.1.2-3.6.5-7.4,1-11a18.34,18.34,0,0,0-4.4-15.5,71.91,71.91,0,0,0-20.1-15.8c-5.2-2.9-10-4.1-14.8-3.8h-.1c-.5,0-1,.1-1.5.1a23.25,23.25,0,0,0-3.7.4,21.46,21.46,0,0,0-4.9,1.9,3.79,3.79,0,0,0-2,4.4A2.88,2.88,0,0,0,98.8,96.1Z"/><path class="cls-1" d="M144.7,45.5q3,1.35,6,2.4l1.3.5a8.76,8.76,0,0,1,6,6.5c.8,3.2.2,6.3-.5,9.6l-.2,1.3c-.5,2.4-.9,4.8-1.4,7.3l-.8,4.4v.3l.1.2c.2.7.4,1.5.6,2.3.5,1.9,1,3.8,1.7,5.7.5,1.3,1,2.6,1.6,3.8a25.56,25.56,0,0,1,2.2,6.4c.4,3.1.9,6.2,1.5,9.2a6.77,6.77,0,0,0,1.2,2.4,5.58,5.58,0,0,1,.5.8l.8,1.5,1.9-1.8c.6-.5,1.2-1.1,1.7-1.6a2.77,2.77,0,0,0,.5-.9c.4-1.3.8-2.5,1.2-3.8a81.33,81.33,0,0,0,2.5-8.8c1.2-6.1,2-12.4,2.9-18.5.2-1.7.5-3.5.7-5.2a17,17,0,0,0-1.9-10.4,49.06,49.06,0,0,0-13.5-16.4c-5.6-4.4-10.7-5.6-16-3.6a4.57,4.57,0,0,0-2.9,3C142,43.3,143.7,45,144.7,45.5Z"/><path class="cls-1" d="M268.6,117.4c-4.8-1.4-9.6-2.3-14.9-3.4-2.7-.5-5.4-.9-8-1.3h-.1c-1-.2-2.1-.3-3.1-.5h-.3a18,18,0,0,1-2.2.2c-1.4.1-2.6.3-3.9.5-5.4,1.1-10,2.1-14.7,3.3a43.82,43.82,0,0,0-13,5.4c-2.1,1.3-4.1,2.9-5,5.7a3.43,3.43,0,0,0,.3,3.2,3.18,3.18,0,0,0,3.1.8c.8-.1,1.6-.4,2.4-.5l2.6-.6h.1a25,25,0,0,1,5.4-.4c1.4.1,2.5,1.1,3.8,2.2.5.4.9.8,1.4,1.2a23,23,0,0,0,5.8,3.5,14.81,14.81,0,0,0,5.1.9c4.3,0,7.3-1.8,9.9-3.5l1.5-.9c2-1.2,4.3-2.6,6.1-3.9,1.4-1.1,2.9-2.2,4.3-3.2l.8-.6c1.6-1.1,3.2-2.3,4.9-2.6a13.89,13.89,0,0,1,9.3,1.3,41.73,41.73,0,0,1,4.4,2.9c.8.6,1.7,1.3,2.6,1.9.2.1,1.9,1.2,3.2.5a4.23,4.23,0,0,0,1.9-2.8c.4-2.3-.8-4.4-3.3-5.5C275.8,120,272.3,118.4,268.6,117.4Z"/><path class="cls-1" d="M225.1,90c-2.3,2.6-4.7,5.8-4.9,10.1a2.91,2.91,0,0,0,.9,2.6,2.35,2.35,0,0,0,1.7.6,1.7,1.7,0,0,0,.7-.1l.4-.1c2.1-.4,4.2-.8,6.3-1.4,6.2-1.7,11.8-3.3,17-4.9a29.56,29.56,0,0,0,5.6-2.3,18.18,18.18,0,0,0,3.5-2.7c.2-.2.5-.4.7-.6,1.4-1.2,2.7-2.4,4.1-3.6,2.6-2.3,5.3-4.8,8.1-7,3.1-2.5,5.9-3.5,8.7-3a14.69,14.69,0,0,1,6.6,2.9c1.5,1.2,3.2,2.5,4.9,3.6.7.4,2.9,1.3,3.9.2a5,5,0,0,0,1.1-3.3,3.23,3.23,0,0,0-1.3-2.7,5.55,5.55,0,0,1-.8-.6,21.22,21.22,0,0,0-4.3-2.8,76.45,76.45,0,0,0-10.4-3.7,61.16,61.16,0,0,0-6.9-1.5h-.1c-1-.2-1.9-.3-2.9-.6h-.5l-3.2.6a41.77,41.77,0,0,0-7,1.6,133.91,133.91,0,0,0-15.6,6.8A48.8,48.8,0,0,0,225.1,90Z"/></svg>