<?xml version="1.0" encoding="utf-8"?>
<!-- Generator: Adobe Illustrator 26.0.3, SVG Export Plug-In . SVG Version: 6.00 Build 0)  -->
<svg version="1.1" id="Layer_1" xmlns="http://www.w3.org/2000/svg" xmlns:xlink="http://www.w3.org/1999/xlink" x="0px" y="0px"
	 viewBox="0 0 144 32" style="enable-background:new 0 0 144 32;" xml:space="preserve">
<style type="text/css">
	.st0{fill-rule:evenodd;clip-rule:evenodd;fill:#FFFFFF;}
</style>
<path class="st0" d="M2.1,0v6.2h26.2L5.4,14.3C4,14.9,2.8,15.7,2,16.8s-1.4,2.3-1.7,3.6c-0.3,1.3-0.3,2.6-0.1,4
	c0.2,1.4,0.7,2.6,1.5,3.7c0.7,1.1,1.7,2,3,2.7c1.2,0.7,2.7,1.1,4.4,1.1h41.9l0,0c0.3,0,0.6,0,0.9,0c8.7,0,15.8-7.1,15.8-16
	c0-3.7-1.2-7-3.3-9.7l25.2,0c1.1,0,1.9,0.3,2.5,0.9c0.5,0.6,0.8,1.3,0.8,2.1c0,0.8-0.3,1.4-0.9,2.1c-0.6,0.6-1.4,0.9-2.5,0.9
	l-21.5,0.1v0.4L98.8,32v-0.1h6.2L104.9,9c0-0.6,0.1-1.1,0.4-1.6c0.2-0.5,0.6-0.8,1-1c0.4-0.2,0.9-0.3,1.5-0.2
	c0.6,0.1,1.2,0.3,1.8,0.8l34.3,25v-7.7L113.5,2.1c-1.5-1.1-3.1-1.7-4.8-2c-1.7-0.2-3.3,0-4.8,0.5c-1.5,0.5-2.7,1.5-3.7,2.7
	c-1,1.3-1.5,2.9-1.5,4.8v16.5l-11.5-6.6l2.8,0c1.9,0,3.5-0.5,4.8-1.4c1.3-0.9,2.2-2,2.8-3.4c0.6-1.3,0.9-2.8,0.8-4.4
	c-0.1-1.5-0.5-3-1.2-4.3c-0.8-1.3-1.8-2.4-3.3-3.3C92.6,0.5,90.8,0,88.7,0H59.4l-6.5,0c-0.4,0-0.8,0-1.2,0c-0.4,0-0.8,0-1.1,0L2.1,0
	z M37.7,8.6L7.9,20.2c-0.6,0.3-1.1,0.7-1.3,1.3c-0.2,0.6-0.3,1.2-0.1,1.8c0.2,0.6,0.5,1.2,1,1.6c0.5,0.5,1.2,0.7,2,0.7l29.8,0
	c-2.1-2.7-3.3-6.1-3.3-9.7C35.9,13.3,36.6,10.8,37.7,8.6z M61.4,16c0-5.4-4.3-9.7-9.6-9.7c-5.3,0-9.6,4.4-9.6,9.7
	c0,5.3,4.3,9.7,9.6,9.7C57,25.7,61.4,21.3,61.4,16z"/>
</svg>
